<svg xmlns="http://www.w3.org/2000/svg" style="position:absolute;width:0;height:0;overflow:hidden" aria-hidden="true" focusable="false">
  <symbol id="icon-chevron-down" viewBox="0 0 24 24">
    <polyline points="6 9 12 15 18 9" fill="none" stroke="currentColor" stroke-width="2" stroke-linecap="round" stroke-linejoin="round"/>
  </symbol>
  <symbol id="icon-location" viewBox="0 0 24 24">
    <path d="M21 10c0 7-9 13-9 13s-9-6-9-13a9 9 0 0 1 18 0z" fill="none" stroke="currentColor" stroke-width="2" stroke-linecap="round" stroke-linejoin="round"/>
    <circle cx="12" cy="10" r="3" fill="none" stroke="currentColor" stroke-width="2"/>
  </symbol>
  <symbol id="icon-phone" viewBox="0 0 24 24">
    <path d="M22 16.92v3a2 2 0 0 1-2.18 2A19.79 19.79 0 0 1 3 5.18 2 2 0 0 1 5.11 3h3a2 2 0 0 1 2 1.72c.12.81.3 1.6.54 2.36a2 2 0 0 1-.45 2.11L8.09 9.91a16 16 0 0 0 6 6l1.72-1.72a2 2 0 0 1 2.11-.45c.76.24 1.55.42 2.36.54A2 2 0 0 1 22 16.92z" fill="none" stroke="currentColor" stroke-width="2" stroke-linecap="round" stroke-linejoin="round"/>
  </symbol>
  <symbol id="icon-fax" viewBox="0 0 24 24">
    <path d="M6 9V3h12v6" fill="none" stroke="currentColor" stroke-width="2" stroke-linecap="round" stroke-linejoin="round"/>
    <rect x="6" y="13" width="12" height="8" fill="none" stroke="currentColor" stroke-width="2"/>
    <rect x="4" y="9" width="16" height="4" fill="none" stroke="currentColor" stroke-width="2"/>
  </symbol>
  <symbol id="icon-mail" viewBox="0 0 24 24">
    <rect x="2" y="4" width="20" height="16" rx="2" ry="2" fill="none" stroke="currentColor" stroke-width="2"/>
    <polyline points="22 6 12 13 2 6" fill="none" stroke="currentColor" stroke-width="2" stroke-linecap="round" stroke-linejoin="round"/>
  </symbol>
  <symbol id="icon-facebook" viewBox="0 0 24 24">
    <path d="M18 2h-3a5 5 0 0 0-5 5v3H7v4h3v8h4v-8h3l1-4h-4V7a1 1 0 0 1 1-1h3z" fill="none" stroke="currentColor" stroke-width="2" stroke-linecap="round" stroke-linejoin="round"/>
  </symbol>
  <symbol id="icon-instagram" viewBox="0 0 24 24">
    <rect x="2" y="2" width="20" height="20" rx="5" ry="5" fill="none" stroke="currentColor" stroke-width="2"/>
    <circle cx="12" cy="12" r="4" fill="none" stroke="currentColor" stroke-width="2"/>
    <circle cx="18" cy="6" r="1" fill="currentColor"/>
  </symbol>
  <symbol id="icon-chat" viewBox="0 0 24 24">
    <path d="M21 11.5a8.5 8.5 0 0 1-9 8.5 8.5 8.5 0 1 1 0-17 8.5 8.5 0 0 1 9 8.5z" fill="none" stroke="currentColor" stroke-width="2"/>
    <path d="M8 11h8M8 15h5" fill="none" stroke="currentColor" stroke-width="2" stroke-linecap="round"/>
  </symbol>
  <symbol id="icon-check" viewBox="0 0 24 24">
    <polyline points="20 6 9 17 4 12" fill="none" stroke="currentColor" stroke-width="2" stroke-linecap="round" stroke-linejoin="round"/>
  </symbol>
  <symbol id="icon-x" viewBox="0 0 24 24">
    <line x1="18" y1="6" x2="6" y2="18" stroke="currentColor" stroke-width="2" stroke-linecap="round"/>
    <line x1="6" y1="6" x2="18" y2="18" stroke="currentColor" stroke-width="2" stroke-linecap="round"/>
  </symbol>
  <symbol id="icon-arrow-up" viewBox="0 0 24 24">
    <line x1="12" y1="19" x2="12" y2="5" stroke="currentColor" stroke-width="2" stroke-linecap="round"/>
    <polyline points="5 12 12 5 19 12" fill="none" stroke="currentColor" stroke-width="2" stroke-linecap="round" stroke-linejoin="round"/>
  </symbol>
  <symbol id="icon-eye" viewBox="0 0 24 24">
    <path d="M1 12s4-7 11-7 11 7 11 7-4 7-11 7S1 12 1 12z" fill="none" stroke="currentColor" stroke-width="2" stroke-linecap="round" stroke-linejoin="round"/>
    <circle cx="12" cy="12" r="3" fill="none" stroke="currentColor" stroke-width="2"/>
  </symbol>
  <symbol id="icon-eye-off" viewBox="0 0 24 24">
    <path d="M17.94 17.94A10.94 10.94 0 0 1 12 19c-7 0-11-7-11-7a21.36 21.36 0 0 1 5.06-6.94" fill="none" stroke="currentColor" stroke-width="2" stroke-linecap="round" stroke-linejoin="round"/>
    <path d="M1 1l22 22" fill="none" stroke="currentColor" stroke-width="2" stroke-linecap="round"/>
    <path d="M9.9 4.24A10.94 10.94 0 0 1 12 5c7 0 11 7 11 7a21.36 21.36 0 0 1-3.17 4.24" fill="none" stroke="currentColor" stroke-width="2" stroke-linecap="round" stroke-linejoin="round"/>
    <path d="M14.12 14.12a3 3 0 0 1-4.24-4.24" fill="none" stroke="currentColor" stroke-width="2" stroke-linecap="round" stroke-linejoin="round"/>
  </symbol>
  <symbol id="icon-lock" viewBox="0 0 24 24">
    <rect x="3" y="11" width="18" height="11" rx="2" ry="2" fill="none" stroke="currentColor" stroke-width="2"/>
    <path d="M7 11V7a5 5 0 0 1 10 0v4" fill="none" stroke="currentColor" stroke-width="2" stroke-linecap="round"/>
  </symbol>
  <symbol id="icon-bell" viewBox="0 0 24 24">
    <path d="M18 8a6 6 0 1 0-12 0c0 7-3 8-3 8h18s-3-1-3-8" fill="none" stroke="currentColor" stroke-width="2" stroke-linecap="round" stroke-linejoin="round"/>
    <path d="M13.73 21a2 2 0 0 1-3.46 0" fill="none" stroke="currentColor" stroke-width="2" stroke-linecap="round" stroke-linejoin="round"/>
  </symbol>
  <symbol id="icon-user" viewBox="0 0 24 24">
    <path d="M20 21v-2a4 4 0 0 0-4-4H8a4 4 0 0 0-4 4v2" fill="none" stroke="currentColor" stroke-width="2" stroke-linecap="round" stroke-linejoin="round"/>
    <circle cx="12" cy="7" r="4" fill="none" stroke="currentColor" stroke-width="2" stroke-linecap="round" stroke-linejoin="round"/>
  </symbol>
</svg>
